# Blender 3.3.0
# www.blender.org
mtllib untitled.mtl.mtl
o Cube
v 2.517261 2.517261 -2.517261
v 2.517261 -2.517261 -2.517261
v 2.517261 2.517261 2.517261
v 2.517261 -2.517261 2.517261
v -2.517261 2.517261 -2.517261
v -2.517261 -2.517261 -2.517261
v -2.517261 2.517261 2.517261
v -2.517261 -2.517261 2.517261
v -1.000000 2.504713 1.000000
v 1.000000 2.504713 1.000000
v -1.000000 2.504713 -1.000000
v 1.000000 2.504713 -1.000000
vn -0.0000 -1.0000 -0.0000
vn -0.0000 -0.0000 -1.0000
vn 1.0000 -0.0000 -0.0000
vn -0.0000 1.0000 -0.0000
vn -0.0000 -0.0000 1.0000
vt 0.625000 0.500000
vt 0.375000 0.500000
vt 0.625000 0.750000
vt 0.375000 0.750000
vt 0.875000 0.500000
vt 0.625000 0.250000
vt 0.125000 0.500000
vt 0.375000 0.250000
vt 0.875000 0.750000
vt 0.625000 1.000000
vt 0.625000 0.000000
vt 0.375000 1.000000
vt 0.375000 0.000000
vt 0.125000 0.750000
vt 0.000000 0.000000
vt 1.000000 0.000000
vt 0.000000 1.000000
vt 1.000000 1.000000
s 0
usemtl Material
f 1/1/1 3/3/1 7/9/1 5/5/1
f 8/13/3 6/8/3 5/6/3 7/11/3
f 6/7/4 8/14/4 4/4/4 2/2/4
usemtl 材质
f 6/8/5 2/2/5 1/1/5 5/6/5
usemtl 材质.001
f 4/4/2 8/12/2 7/10/2 3/3/2
usemtl 材质.002
f 9/15/1 11/17/1 12/18/1 10/16/1
o 立方体
v -1.000000 -1.000000 1.000000
v -1.000000 1.000000 1.000000
v -1.000000 -1.000000 -1.000000
v -1.000000 1.000000 -1.000000
v 1.000000 -1.000000 1.000000
v 1.000000 1.000000 1.000000
v 1.000000 -1.000000 -1.000000
v 1.000000 1.000000 -1.000000
vn -1.0000 -0.0000 -0.0000
vn -0.0000 -0.0000 -1.0000
vn 1.0000 -0.0000 -0.0000
vn -0.0000 -0.0000 1.0000
vn -0.0000 -1.0000 -0.0000
vn -0.0000 1.0000 -0.0000
vt 0.375000 0.000000
vt 0.375000 1.000000
vt 0.125000 0.750000
vt 0.625000 0.000000
vt 0.625000 1.000000
vt 0.875000 0.750000
vt 0.375000 0.250000
vt 0.125000 0.500000
vt 0.625000 0.250000
vt 0.875000 0.500000
vt 0.375000 0.750000
vt 0.625000 0.750000
vt 0.375000 0.500000
vt 0.625000 0.500000
s 0