# Blender 3.3.0
# www.blender.org
mtllib untitled.mtl
o 平面
v 0.008966 6.390455 5.539653
v -5.554024 6.390455 0.030954
v -0.045325 6.390455 -5.532034
v 5.516043 6.390455 10.992987
v -0.046945 6.390455 5.484287
v 5.461753 6.390455 -0.078701
v 11.023122 6.390455 16.446320
v 5.460133 6.390455 10.937620
v 10.968832 6.390455 5.374632
v 5.462298 6.390455 0.032574
v -0.100690 6.390455 -5.476126
v 5.408009 6.390455 -11.039114
v 10.969378 6.390455 5.485908
v 5.406388 6.390455 -0.022792
v 10.915087 6.390455 -5.585780
v 10.915633 6.390455 -5.474503
v 5.352643 6.390455 -10.983204
v 10.861342 6.390455 -16.546192
vn -0.0000 1.0000 -0.0000
s 0
usemtl material1
f 1//1 3//1 2//1
f 4//1 6//1 5//1
f 7//1 9//1 8//1
f 10//1 12//1 11//1
f 13//1 15//1 14//1
f 16//1 18//1 17//1
o 平面.001
v -17.856503 0.000000 17.856503
v 17.856503 0.000000 17.856503
v -17.856503 0.000000 -17.856503
v 17.856503 0.000000 -17.856503
vn -0.0000 1.0000 -0.0000
s 0
usemtl material0
f 19//2 20//2 22//2 21//2
